<svg width="204" height="243" viewBox="0 0 204 243" fill="none" xmlns="http://www.w3.org/2000/svg">
<path d="M99.687 38.7284L104.313 115.725L48.8015 84.1565L83.4962 31.0288L99.687 38.7284Z" fill="#F28524"/>
<path d="M104.313 201.192V120.345L48.8015 88.7764L71.9313 185.792L104.313 201.192Z" fill="#F28524"/>
<path d="M67.3053 50.278L51.8855 72.607L44.9466 63.3674L67.3053 50.278Z" fill="#F28524"/>
<path d="M129.756 216.591L108.168 121.885L109.71 226.601L120.504 233.53L129.756 216.591Z" fill="#F28524"/>
<path d="M75.0153 212.741L44.9466 93.3962L31 150L75.0153 212.741Z" fill="#F28524"/>
<path d="M75.0153 218.901L65.7634 206.581L69.6183 237.38L75.0153 218.901Z" fill="#F28524"/>
<path d="M102 226.601L84.2672 237.38H120.504L102 226.601Z" fill="#F28524"/>
<path d="M132.84 218.901L124.359 233.53L158.282 242L181.412 238.92L132.84 218.901Z" fill="#F28524"/>
<path d="M65.7634 237.38L63.4504 222.751L1 237.38H65.7634Z" fill="#F28524"/>
<path d="M132.84 158.073L112.023 123.425L126.672 178.093L132.84 158.073Z" fill="#F28524"/>
<path d="M100.458 35.6486L77.3282 24.869L88.8931 6.38978L109.71 4.84984L100.458 35.6486Z" fill="#F28524"/>
<path d="M85.0382 6.38978L74.2443 23.3291L63.4504 17.1693L61.1374 8.69968L65.7634 4.84984L85.0382 6.38978Z" fill="#F28524"/>
<path d="M139.008 1L113.565 4.84984L107.397 24.099L139.008 1Z" fill="#F28524"/>
<path d="M114.336 47.1981L105.855 30.2588L103.542 37.1885L114.336 47.1981Z" fill="#F28524"/>
<path d="M197.603 222.751L203 230.45L185.267 237.38L176.015 233.53L189.893 226.601L170.618 222.751H197.603Z" fill="#F28524"/>
<path d="M197.603 222.751L203 230.45L185.267 237.38L176.015 233.53L189.893 226.601M197.603 222.751H170.618L189.893 226.601M197.603 222.751L189.893 226.601M104.313 115.725L99.687 38.7284L83.4962 31.0288L48.8015 84.1565L104.313 115.725ZM104.313 120.345V201.192L71.9313 185.792L48.8015 88.7764L104.313 120.345ZM51.8855 72.607L67.3053 50.278L44.9466 63.3674L51.8855 72.607ZM108.168 121.885L129.756 216.591L120.504 233.53L109.71 226.601L108.168 121.885ZM44.9466 93.3962L75.0153 212.741L31 150L44.9466 93.3962ZM65.7634 206.581L75.0153 218.901L69.6183 237.38L65.7634 206.581ZM84.2672 237.38L102 226.601L120.504 237.38H84.2672ZM124.359 233.53L132.84 218.901L181.412 238.92L158.282 242L124.359 233.53ZM63.4504 222.751L65.7634 237.38H1L63.4504 222.751ZM112.023 123.425L132.84 158.073L126.672 178.093L112.023 123.425ZM77.3282 24.869L100.458 35.6486L109.71 4.84984L88.8931 6.38978L77.3282 24.869ZM74.2443 23.3291L85.0382 6.38978L65.7634 4.84984L61.1374 8.69968L63.4504 17.1693L74.2443 23.3291ZM113.565 4.84984L139.008 1L107.397 24.099L113.565 4.84984ZM105.855 30.2588L114.336 47.1981L103.542 37.1885L105.855 30.2588Z" stroke="#F28524"/>
</svg>
